<svg fill="#00A88E" width="156" height="30" xmlns="http://www.w3.org/2000/svg"><path d="M70.31 15.11c0 5.9-3.6 8.68-8.09 8.68h-2.75v-3.54h2.54c2.7 0 4.52-1.46 4.52-5.14 0-3.64-1.71-5.46-4.6-5.46-2.79 0-4.78 1.71-4.78 5.39v14.78H53.4V6.57h3.75v2h.53a6.09 6.09 0 0 1 5.03-2.42c4.14 0 7.6 3 7.6 8.96zm-24.63-1.54-2.5-.25c-1.97-.18-3-.71-3-1.85 0-1.36 1.32-2.15 3.21-2.15 1.96 0 3.21.93 3.32 2.26h3.6c-.14-3.36-2.74-5.43-6.88-5.43-4.18 0-7 2.21-7 5.46 0 2.71 1.71 4.46 5.6 4.86l2.54.25c1.53.14 2.57.46 2.57 1.92 0 1.33-.96 2.29-3.5 2.29-2.33 0-3.48-1.06-3.89-2.48h-3.9c.4 3.25 3.12 5.77 7.8 5.77 4.38 0 7.24-2.33 7.24-5.75 0-3.04-2-4.57-5.21-4.9zm39.15 4.88c-.59 1.35-2 2.37-3.99 2.37-2.75 0-4.78-1.78-4.78-5.64 0-3.68 1.89-5.71 4.82-5.71 2.6 0 4.1 1.57 4.25 3.92h-6.75v2.72H88.8v-1.79c0-4.96-3.28-8.17-7.96-8.17-4.35 0-8.53 2.96-8.53 9.03 0 6.07 4.18 9.04 8.53 9.04a7.69 7.69 0 0 0 7.7-5.77h-3.71zm-59.1-12.3c-4.1 0-7.17 2.14-7.53 5.42h4.04c.28-1.21 1.4-2.1 3.5-2.1 2.71 0 3.6 1.43 3.6 3.18v5.89c-1.53 1.75-3.32 2.57-5.1 2.57-1.86 0-3.14-.9-3.14-2.5 0-1.54 1-2.5 2.92-2.5h3V13.4h-3.1c-4.29 0-6.68 2.14-6.68 5.42 0 3.07 2.32 5.4 6.14 5.4a9.2 9.2 0 0 0 5.43-1.9h.53v1.47h3.75v-11.5c0-4.25-2.89-6.14-7.35-6.14zM.3 23.79h3.75V.22H.31v23.57zM16.05 6.57h-4.57l-5.46 7.18V16l5.6 7.78h4.64L9.7 14.87l6.36-8.28zm135.5 0-3.07 6.82a24.27 24.27 0 0 0-1.67 4.32h-.54c-.21-1.07-.96-2.64-1.71-4.28l-3.07-6.86h-4.14l7.2 15.47-3.56 7.78h4l10.7-23.25h-4.14zm-15.03 0h-4.57l-5.46 7.18V16l5.6 7.78h4.64l-6.57-8.92 6.36-8.29zm-23.47 7-2.5-.25c-1.96-.18-3-.71-3-1.85 0-1.36 1.32-2.15 3.21-2.15 1.97 0 3.22.93 3.32 2.25h3.6c-.13-3.35-2.74-5.42-6.88-5.42-4.18 0-7 2.2-7 5.46 0 2.71 1.72 4.46 5.6 4.85l2.54.25c1.54.15 2.57.47 2.57 1.93 0 1.32-.96 2.29-3.5 2.29-2.33 0-3.48-1.06-3.89-2.48h-3.9c.4 3.24 3.12 5.76 7.8 5.76 4.38 0 7.24-2.32 7.24-5.75 0-3.03-2-4.57-5.21-4.89zm7.72 10.21h3.75V.22h-3.75v23.57zM96.06 8.58h-.54v-2h-3.75v17.2h3.75v-9c0-3.06 1.42-4.85 4.21-4.85h2.37V6.15h-1.37c-2.6 0-3.7.97-4.68 2.42z"></path></svg>
